<?xml version="1.0" encoding="UTF-8"?>
<svg xmlns="http://www.w3.org/2000/svg" xmlns:xlink="http://www.w3.org/1999/xlink" width="222px" height="41px" viewBox="0 0 222 41" version="1.1">
<g id="surface1">
<path style=" stroke:none;fill-rule:nonzero;fill:rgb(0%,0%,0%);fill-opacity:1;" d="M 61.09375 24.078125 C 60.921875 23.628906 60.835938 23.007812 60.835938 22.210938 C 60.835938 21.417969 61.109375 19.0625 61.648438 15.144531 C 62.191406 11.242188 62.460938 8.105469 62.460938 5.738281 C 62.460938 5.179688 62.421875 4.417969 62.34375 3.453125 C 63.742188 3.535156 64.621094 3.863281 64.980469 4.445312 C 65.164062 4.789062 65.285156 5.113281 65.335938 5.417969 C 65.390625 5.722656 65.414062 6.207031 65.414062 6.867188 C 65.414062 7.515625 65.117188 9.984375 64.523438 14.273438 C 63.914062 18.558594 63.605469 21.617188 63.59375 23.441406 C 63.683594 23.417969 63.847656 23.402344 64.085938 23.402344 C 68.089844 23.402344 71.070312 23.125 73.027344 22.570312 C 72.894531 23.640625 72.53125 24.476562 71.9375 25.070312 C 71.328125 25.664062 70.574219 25.964844 69.675781 25.964844 C 69.414062 25.964844 68.613281 25.902344 67.277344 25.785156 C 65.929688 25.664062 64.628906 25.605469 63.375 25.605469 C 62.117188 25.605469 60.855469 25.726562 59.585938 25.964844 C 59.839844 25.144531 60.339844 24.515625 61.09375 24.078125 Z M 79.351562 14.867188 C 78.820312 15.792969 78.414062 16.746094 78.121094 17.726562 C 77.832031 18.691406 77.683594 19.625 77.683594 20.523438 C 77.683594 21.410156 77.882812 22.164062 78.28125 22.789062 C 78.675781 23.410156 79.246094 23.71875 79.984375 23.71875 C 81.027344 23.71875 82 23.152344 82.898438 22.011719 C 83.808594 20.863281 84.511719 19.480469 85 17.863281 C 85.488281 16.238281 85.734375 14.734375 85.734375 13.359375 C 85.734375 11.984375 85.679688 10.851562 85.574219 9.964844 C 86.011719 9.925781 86.289062 9.90625 86.40625 9.90625 C 87.980469 9.90625 88.765625 10.710938 88.765625 12.328125 C 88.765625 12.671875 88.542969 14.101562 88.09375 16.613281 C 87.65625 19.128906 87.4375 21.140625 87.4375 22.648438 C 87.4375 24.15625 87.722656 25.492188 88.289062 26.660156 C 87.128906 26.421875 86.28125 25.902344 85.753906 25.109375 C 85.222656 24.328125 84.960938 23.199219 84.960938 21.714844 C 84.960938 21.449219 85 20.949219 85.078125 20.207031 C 84.578125 21.96875 83.699219 23.382812 82.441406 24.457031 C 81.175781 25.539062 79.9375 26.082031 78.734375 26.082031 C 77.519531 26.082031 76.542969 25.621094 75.800781 24.691406 C 75.0625 23.78125 74.691406 22.515625 74.691406 20.902344 C 74.691406 19.273438 74.996094 17.6875 75.605469 16.136719 C 76.199219 14.589844 77.105469 13.253906 78.320312 12.128906 C 79.523438 10.992188 80.875 10.421875 82.382812 10.421875 C 83.03125 10.421875 83.746094 10.554688 84.523438 10.816406 C 83.425781 11.097656 82.421875 11.605469 81.511719 12.347656 C 80.613281 13.085938 79.890625 13.929688 79.351562 14.867188 Z M 107.28125 6.429688 L 107.300781 6.769531 C 107.300781 7.46875 107.035156 9.773438 106.507812 13.675781 C 105.976562 17.566406 105.714844 20.824219 105.714844 23.441406 C 105.714844 24.605469 105.773438 25.515625 105.890625 26.164062 C 105.441406 26.203125 105.199219 26.222656 105.160156 26.222656 C 104.328125 26.222656 103.707031 26.03125 103.296875 25.644531 C 102.898438 25.261719 102.699219 24.640625 102.699219 23.78125 C 102.699219 22.921875 103.011719 20.285156 103.632812 15.878906 C 104.242188 11.488281 104.542969 8.351562 104.542969 6.472656 C 104.542969 4.59375 104.417969 3.359375 104.167969 2.777344 C 104.761719 2.859375 105.3125 3.089844 105.8125 3.472656 C 106.328125 3.84375 106.710938 4.347656 106.960938 4.980469 C 108.375 4.226562 109.949219 3.851562 111.679688 3.851562 C 113.398438 3.851562 114.753906 4.378906 115.742188 5.4375 C 116.734375 6.511719 117.230469 7.820312 117.230469 9.371094 C 117.230469 11.355469 116.511719 13.140625 115.070312 14.730469 C 113.628906 16.304688 111.6875 17.089844 109.242188 17.089844 C 108.6875 17.089844 108.179688 17.058594 107.714844 16.992188 L 107.636719 16.097656 C 108.878906 16.097656 109.960938 15.914062 110.886719 15.542969 C 111.8125 15.171875 112.511719 14.683594 112.988281 14.074219 C 113.925781 12.882812 114.394531 11.492188 114.394531 9.90625 C 114.394531 8.753906 114.03125 7.792969 113.304688 7.027344 C 112.578125 6.257812 111.523438 5.875 110.132812 5.875 C 109.300781 5.875 108.351562 6.0625 107.28125 6.429688 Z M 123.375 14.867188 C 122.832031 15.792969 122.417969 16.746094 122.125 17.726562 C 121.847656 18.691406 121.710938 19.625 121.710938 20.523438 C 121.710938 21.410156 121.910156 22.164062 122.304688 22.789062 C 122.703125 23.410156 123.269531 23.71875 124.007812 23.71875 C 125.039062 23.71875 126.011719 23.152344 126.921875 22.011719 C 127.820312 20.863281 128.515625 19.480469 129.003906 17.863281 C 129.507812 16.238281 129.757812 14.734375 129.757812 13.359375 C 129.757812 11.984375 129.699219 10.851562 129.578125 9.964844 C 130.027344 9.925781 130.304688 9.90625 130.414062 9.90625 C 131.984375 9.90625 132.769531 10.710938 132.769531 12.328125 C 132.769531 12.671875 132.554688 14.101562 132.117188 16.613281 C 131.667969 19.128906 131.441406 21.140625 131.441406 22.648438 C 131.441406 24.15625 131.726562 25.492188 132.296875 26.660156 C 131.132812 26.421875 130.285156 25.902344 129.757812 25.109375 C 129.230469 24.328125 128.964844 23.199219 128.964844 21.714844 C 128.964844 21.449219 129.003906 20.949219 129.085938 20.207031 C 128.582031 21.96875 127.703125 23.382812 126.449219 24.457031 C 125.191406 25.539062 123.957031 26.082031 122.742188 26.082031 C 121.523438 26.082031 120.546875 25.621094 119.808594 24.691406 C 119.066406 23.78125 118.699219 22.515625 118.699219 20.902344 C 118.699219 19.273438 119 17.6875 119.609375 16.136719 C 120.203125 14.589844 121.109375 13.253906 122.324219 12.128906 C 123.539062 10.992188 124.894531 10.421875 126.386719 10.421875 C 127.035156 10.421875 127.75 10.554688 128.527344 10.816406 C 127.433594 11.097656 126.433594 11.605469 125.535156 12.347656 C 124.625 13.085938 123.902344 13.929688 123.375 14.867188 Z M 149.917969 13.65625 C 149.917969 14.503906 149.738281 16.003906 149.382812 18.164062 C 149.023438 20.320312 148.847656 21.894531 148.847656 22.886719 C 148.847656 23.867188 148.964844 24.574219 149.203125 25.011719 C 149.441406 25.449219 149.851562 25.816406 150.433594 26.121094 C 150.179688 26.148438 149.839844 26.164062 149.402344 26.164062 C 148.144531 26.164062 147.253906 25.925781 146.726562 25.449219 C 146.195312 24.972656 145.933594 24.125 145.933594 22.90625 C 145.933594 22.21875 146.117188 20.835938 146.488281 18.757812 C 146.859375 16.667969 147.042969 15.132812 147.042969 14.152344 C 147.042969 12.933594 146.671875 12.328125 145.933594 12.328125 C 144.742188 12.328125 143.515625 13.371094 142.246094 15.464844 C 140.976562 17.554688 140.34375 20.074219 140.34375 23.027344 C 140.34375 24.191406 140.402344 25.097656 140.523438 25.746094 C 140.03125 25.785156 139.742188 25.804688 139.648438 25.804688 C 138.023438 25.804688 137.210938 25.003906 137.210938 23.402344 C 137.210938 23.03125 137.410156 21.609375 137.804688 19.136719 C 138.1875 16.648438 138.378906 14.667969 138.378906 13.199219 C 138.378906 11.71875 138.222656 10.363281 137.90625 9.132812 C 139 9.554688 139.769531 10.15625 140.203125 10.9375 C 140.640625 11.730469 140.859375 12.632812 140.859375 13.636719 C 140.859375 14.644531 140.746094 15.8125 140.523438 17.148438 C 141.128906 15.058594 142.085938 13.300781 143.394531 11.871094 C 144.691406 10.429688 145.90625 9.707031 147.042969 9.707031 C 148.960938 9.707031 149.917969 11.023438 149.917969 13.65625 Z M 163.21875 10.519531 C 163.21875 11.289062 163.074219 11.824219 162.78125 12.128906 C 162.476562 12.417969 162.042969 12.566406 161.472656 12.566406 L 159.472656 12.566406 C 159.390625 13.054688 159.199219 14.207031 158.898438 16.019531 C 158.261719 19.460938 157.945312 22.058594 157.945312 23.820312 C 157.945312 25.578125 158.078125 26.75 158.339844 27.332031 C 157.285156 26.9375 156.53125 26.347656 156.082031 25.566406 C 155.644531 24.773438 155.429688 23.8125 155.429688 22.6875 C 155.429688 21.550781 155.492188 20.476562 155.625 19.472656 C 155.769531 18.46875 155.96875 17.289062 156.21875 15.941406 C 156.484375 14.578125 156.671875 13.492188 156.777344 12.683594 C 155.71875 12.828125 154.679688 13.128906 153.664062 13.578125 C 153.636719 13.273438 153.625 13 153.625 12.761719 C 153.625 11.875 153.914062 11.28125 154.496094 10.976562 C 155.089844 10.671875 155.941406 10.519531 157.054688 10.519531 C 157.183594 9.144531 157.25 8.117188 157.25 7.445312 C 157.25 6.769531 157.246094 6.226562 157.230469 5.816406 C 157.230469 5.40625 157.230469 5.101562 157.230469 4.902344 C 158.078125 5.035156 158.730469 5.414062 159.195312 6.035156 C 159.65625 6.644531 159.886719 7.488281 159.886719 8.574219 C 159.886719 9.132812 159.839844 9.804688 159.75 10.601562 C 161.359375 10.601562 162.496094 10.328125 163.160156 9.785156 C 163.199219 10.050781 163.21875 10.296875 163.21875 10.519531 Z M 168.429688 17.148438 C 169.039062 15.058594 169.976562 13.300781 171.246094 11.871094 C 172.515625 10.429688 173.703125 9.707031 174.8125 9.707031 C 175.925781 9.707031 176.710938 10.042969 177.171875 10.71875 C 177.636719 11.394531 177.867188 12.3125 177.867188 13.476562 C 177.867188 14.628906 177.6875 16.25 177.332031 18.339844 C 176.972656 20.445312 176.796875 21.972656 176.796875 22.925781 C 176.796875 23.878906 176.914062 24.574219 177.152344 25.011719 C 177.390625 25.449219 177.792969 25.816406 178.363281 26.121094 C 178.125 26.148438 177.789062 26.164062 177.351562 26.164062 C 176.160156 26.164062 175.28125 25.917969 174.714844 25.429688 C 174.160156 24.9375 173.882812 24.097656 173.882812 22.90625 C 173.882812 22.21875 174.066406 20.835938 174.4375 18.757812 C 174.808594 16.667969 174.992188 15.132812 174.992188 14.152344 C 174.992188 12.933594 174.5625 12.328125 173.703125 12.328125 C 173.203125 12.328125 172.648438 12.589844 172.039062 13.121094 C 171.429688 13.636719 170.84375 14.34375 170.273438 15.246094 C 169.71875 16.144531 169.25 17.289062 168.867188 18.679688 C 168.484375 20.054688 168.292969 21.410156 168.292969 22.746094 C 168.292969 24.097656 168.351562 25.097656 168.472656 25.746094 C 168.019531 25.785156 167.769531 25.804688 167.71875 25.804688 C 166.84375 25.804688 166.203125 25.621094 165.792969 25.25 C 165.371094 24.878906 165.160156 24.296875 165.160156 23.503906 C 165.160156 22.722656 165.324219 21.207031 165.65625 18.957031 C 166.632812 12.0625 167.121094 6.828125 167.121094 3.253906 C 167.121094 1.640625 167.015625 0.554688 166.804688 0 C 167.875 0.398438 168.628906 0.972656 169.066406 1.726562 C 169.5 2.496094 169.71875 3.539062 169.71875 4.863281 C 169.71875 5.789062 169.535156 7.734375 169.164062 10.699219 C 168.808594 13.664062 168.5625 15.8125 168.429688 17.148438 Z M 189.421875 11.15625 C 188.3125 11.15625 187.375 11.789062 186.609375 13.0625 C 185.828125 14.34375 185.3125 15.847656 185.0625 17.566406 L 185.835938 17.566406 C 186.8125 17.566406 187.664062 17.429688 188.390625 17.148438 C 189.105469 16.871094 189.660156 16.515625 190.058594 16.078125 C 190.796875 15.21875 191.167969 14.253906 191.167969 13.179688 C 191.167969 12.570312 191.023438 12.082031 190.730469 11.710938 C 190.441406 11.339844 190.003906 11.15625 189.421875 11.15625 Z M 193.328125 22.410156 C 192.480469 23.800781 191.550781 24.773438 190.53125 25.328125 C 189.515625 25.882812 188.332031 26.164062 186.984375 26.164062 C 185.648438 26.164062 184.480469 25.566406 183.476562 24.375 C 182.472656 23.199219 181.96875 21.53125 181.96875 19.375 C 181.96875 16.925781 182.628906 14.742188 183.953125 12.824219 C 184.597656 11.898438 185.445312 11.140625 186.488281 10.558594 C 187.53125 9.992188 188.683594 9.707031 189.9375 9.707031 C 192.714844 9.707031 194.101562 11.050781 194.101562 13.734375 C 194.101562 15.351562 193.480469 16.613281 192.238281 17.527344 C 190.980469 18.441406 189.535156 18.898438 187.894531 18.898438 C 186.800781 18.898438 185.816406 18.796875 184.941406 18.597656 C 184.929688 18.785156 184.921875 19.070312 184.921875 19.453125 C 184.921875 22.734375 185.894531 24.375 187.835938 24.375 C 189.660156 24.375 191.148438 23.46875 192.296875 21.65625 C 192.984375 21.75 193.328125 22 193.328125 22.410156 Z M 192.773438 7.621094 C 192.757812 7.820312 192.660156 8.011719 192.476562 8.199219 C 192.304688 8.371094 192.105469 8.484375 191.878906 8.535156 C 191.21875 7.703125 190.367188 6.882812 189.324219 6.074219 C 188.28125 5.253906 187.214844 4.679688 186.132812 4.347656 C 186.171875 3.382812 186.621094 2.621094 187.480469 2.0625 C 188.457031 2.449219 189.46875 3.214844 190.511719 4.367188 C 191.558594 5.503906 192.308594 6.589844 192.773438 7.621094 Z M 200.960938 16.714844 C 201.621094 14.304688 202.417969 12.53125 203.359375 11.394531 C 204.296875 10.253906 205.167969 9.6875 205.972656 9.6875 C 206.78125 9.6875 207.382812 9.984375 207.777344 10.578125 C 208.1875 11.1875 208.390625 11.957031 208.390625 12.882812 C 208.390625 13.808594 208.15625 14.609375 207.679688 15.285156 C 207.191406 15.960938 206.484375 16.296875 205.558594 16.296875 C 205.265625 16.296875 205.035156 16.277344 204.863281 16.238281 C 205.5 15.324219 205.816406 14.398438 205.816406 13.457031 C 205.816406 12.796875 205.542969 12.464844 205.003906 12.464844 C 204.578125 12.464844 204.128906 12.710938 203.65625 13.199219 C 203.167969 13.703125 202.703125 14.398438 202.265625 15.285156 C 201.816406 16.183594 201.449219 17.34375 201.15625 18.757812 C 200.851562 20.1875 200.703125 21.730469 200.703125 23.382812 C 200.703125 23.570312 200.746094 24.355469 200.839844 25.746094 C 200.363281 25.785156 200.085938 25.804688 200.007812 25.804688 C 198.382812 25.804688 197.570312 25.003906 197.570312 23.402344 C 197.570312 23.03125 197.769531 21.609375 198.164062 19.136719 C 198.546875 16.648438 198.738281 14.667969 198.738281 13.199219 C 198.738281 11.71875 198.582031 10.363281 198.261719 9.132812 C 199.359375 9.554688 200.125 10.15625 200.5625 10.9375 C 201 11.730469 201.21875 12.652344 201.21875 13.695312 C 201.21875 14.742188 201.132812 15.746094 200.960938 16.714844 Z M 217.3125 11.15625 C 216.203125 11.15625 215.257812 11.789062 214.476562 13.0625 C 213.710938 14.34375 213.203125 15.847656 212.953125 17.566406 L 213.726562 17.566406 C 214.703125 17.566406 215.554688 17.429688 216.28125 17.148438 C 216.996094 16.871094 217.550781 16.515625 217.945312 16.078125 C 218.6875 15.21875 219.058594 14.253906 219.058594 13.179688 C 219.058594 12.570312 218.910156 12.082031 218.621094 11.710938 C 218.328125 11.339844 217.894531 11.15625 217.3125 11.15625 Z M 221.21875 22.410156 C 220.371094 23.800781 219.441406 24.773438 218.421875 25.328125 C 217.40625 25.882812 216.222656 26.164062 214.875 26.164062 C 213.539062 26.164062 212.371094 25.566406 211.367188 24.375 C 210.363281 23.199219 209.859375 21.53125 209.859375 19.375 C 209.859375 16.925781 210.519531 14.742188 211.839844 12.824219 C 212.488281 11.898438 213.335938 11.140625 214.378906 10.558594 C 215.421875 9.992188 216.574219 9.707031 217.828125 9.707031 C 220.601562 9.707031 221.992188 11.050781 221.992188 13.734375 C 221.992188 15.351562 221.371094 16.613281 220.128906 17.527344 C 218.871094 18.441406 217.425781 18.898438 215.785156 18.898438 C 214.6875 18.898438 213.703125 18.796875 212.832031 18.597656 C 212.820312 18.785156 212.8125 19.070312 212.8125 19.453125 C 212.8125 22.734375 213.785156 24.375 215.726562 24.375 C 217.550781 24.375 219.035156 23.46875 220.1875 21.65625 C 220.875 21.75 221.21875 22 221.21875 22.410156 Z M 221.21875 22.410156 "/>
<path style=" stroke:none;fill-rule:nonzero;fill:rgb(11.372549%,11.372549%,10.588235%);fill-opacity:1;" d="M 22.234375 18.699219 L 22.234375 18.660156 C 21.816406 17.921875 21.117188 17.382812 20.296875 17.164062 L 20.21875 17.164062 C 19.773438 17.027344 19.3125 16.9375 18.84375 16.902344 C 17.582031 16.734375 16.371094 16.285156 15.304688 15.589844 C 15.117188 15.476562 14.875 15.53125 14.75 15.714844 C 14.628906 15.894531 14.667969 16.140625 14.84375 16.273438 C 15.195312 16.503906 15.5625 16.707031 15.941406 16.886719 C 15.941406 16.941406 15.894531 16.996094 15.878906 17.058594 C 15.375 18.832031 16.394531 20.679688 18.160156 21.199219 C 18.480469 21.289062 18.808594 21.335938 19.140625 21.335938 C 20.152344 21.339844 21.105469 20.875 21.722656 20.078125 C 21.769531 20.632812 21.738281 21.1875 21.625 21.734375 C 21.582031 21.839844 21.582031 21.960938 21.632812 22.066406 C 21.683594 22.167969 21.773438 22.25 21.882812 22.285156 C 21.925781 22.289062 21.972656 22.289062 22.015625 22.285156 C 22.191406 22.285156 22.351562 22.171875 22.40625 22.003906 C 22.582031 21.261719 22.625 20.496094 22.53125 19.742188 C 22.503906 19.378906 22.402344 19.023438 22.234375 18.699219 Z M 19.773438 17.878906 C 19.792969 17.972656 19.792969 18.070312 19.773438 18.164062 C 19.667969 18.550781 19.265625 18.773438 18.882812 18.667969 C 18.5 18.558594 18.273438 18.160156 18.382812 17.773438 C 18.394531 17.742188 18.414062 17.710938 18.429688 17.679688 L 18.761719 17.71875 C 19.105469 17.746094 19.449219 17.800781 19.785156 17.882812 Z M 20.292969 20.222656 C 19.699219 20.527344 19.015625 20.589844 18.375 20.398438 C 17.039062 20.011719 16.265625 18.613281 16.648438 17.273438 L 16.648438 17.207031 C 16.953125 17.324219 17.265625 17.425781 17.582031 17.507812 L 17.582031 17.542969 C 17.40625 18.101562 17.5625 18.714844 17.984375 19.121094 C 18.40625 19.527344 19.019531 19.660156 19.574219 19.464844 C 20.125 19.265625 20.515625 18.769531 20.585938 18.1875 C 20.914062 18.355469 21.195312 18.605469 21.398438 18.914062 C 21.210938 19.472656 20.820312 19.9375 20.304688 20.222656 Z M 35.210938 17.046875 C 35.210938 16.984375 35.167969 16.9375 35.144531 16.875 C 35.527344 16.695312 35.894531 16.492188 36.246094 16.261719 C 36.421875 16.128906 36.460938 15.882812 36.339844 15.703125 C 36.214844 15.519531 35.972656 15.46875 35.785156 15.578125 C 34.714844 16.273438 33.507812 16.722656 32.246094 16.890625 C 31.773438 16.925781 31.308594 17.015625 30.855469 17.152344 L 30.789062 17.152344 C 29.964844 17.371094 29.261719 17.914062 28.84375 18.660156 L 28.84375 18.6875 C 28.667969 19.023438 28.570312 19.390625 28.542969 19.765625 C 28.453125 20.519531 28.496094 21.285156 28.671875 22.023438 C 28.726562 22.191406 28.886719 22.304688 29.0625 22.304688 C 29.199219 22.308594 29.324219 22.242188 29.40625 22.132812 C 29.484375 22.023438 29.503906 21.882812 29.457031 21.753906 C 29.34375 21.210938 29.308594 20.652344 29.355469 20.101562 C 29.972656 20.898438 30.925781 21.363281 31.9375 21.359375 C 32.265625 21.359375 32.597656 21.3125 32.914062 21.21875 C 33.773438 20.972656 34.5 20.394531 34.929688 19.613281 C 35.363281 18.828125 35.464844 17.90625 35.210938 17.046875 Z M 32.292969 17.71875 L 32.625 17.679688 C 32.644531 17.710938 32.660156 17.742188 32.671875 17.773438 C 32.78125 18.152344 32.5625 18.546875 32.183594 18.65625 C 31.953125 18.726562 31.703125 18.675781 31.519531 18.515625 C 31.335938 18.359375 31.25 18.117188 31.285156 17.878906 C 31.617188 17.796875 31.957031 17.742188 32.300781 17.71875 Z M 32.695312 20.398438 C 32.058594 20.589844 31.371094 20.527344 30.78125 20.222656 C 30.261719 19.9375 29.867188 19.46875 29.679688 18.910156 C 29.882812 18.601562 30.164062 18.351562 30.492188 18.1875 C 30.5 18.257812 30.515625 18.324219 30.53125 18.390625 C 30.726562 19.046875 31.328125 19.496094 32.011719 19.496094 C 32.484375 19.484375 32.925781 19.257812 33.210938 18.882812 C 33.496094 18.503906 33.589844 18.015625 33.472656 17.558594 L 33.472656 17.527344 C 33.789062 17.441406 34.101562 17.339844 34.40625 17.222656 L 34.40625 17.289062 C 34.78125 18.621094 34.019531 20.003906 32.695312 20.398438 Z M 32.695312 20.398438 "/>
<path style=" stroke:none;fill-rule:nonzero;fill:rgb(11.372549%,11.372549%,10.588235%);fill-opacity:1;" d="M 23.519531 18.050781 C 23.429688 16.808594 22.417969 16.019531 20.683594 15.890625 C 19.765625 15.769531 18.886719 15.449219 18.105469 14.957031 C 17.917969 14.832031 17.660156 14.882812 17.535156 15.074219 C 17.40625 15.261719 17.460938 15.519531 17.648438 15.644531 C 18.546875 16.21875 19.566406 16.582031 20.621094 16.710938 C 21.367188 16.765625 22.621094 17.023438 22.699219 18.105469 C 22.710938 18.324219 22.894531 18.492188 23.109375 18.492188 L 23.136719 18.492188 C 23.363281 18.472656 23.535156 18.277344 23.519531 18.050781 Z M 30.664062 16.710938 C 31.722656 16.582031 32.738281 16.21875 33.636719 15.644531 C 33.828125 15.519531 33.878906 15.261719 33.753906 15.074219 C 33.625 14.882812 33.371094 14.832031 33.179688 14.957031 C 32.398438 15.457031 31.515625 15.78125 30.597656 15.90625 C 28.886719 16.039062 27.84375 16.824219 27.761719 18.066406 C 27.753906 18.175781 27.792969 18.285156 27.863281 18.367188 C 27.9375 18.449219 28.039062 18.5 28.148438 18.507812 L 28.175781 18.507812 C 28.394531 18.507812 28.574219 18.339844 28.589844 18.121094 C 28.664062 17.007812 29.941406 16.769531 30.664062 16.710938 Z M 17.082031 13.839844 C 17.175781 13.957031 17.324219 14.015625 17.472656 13.992188 C 17.621094 13.972656 17.746094 13.867188 17.796875 13.726562 C 17.847656 13.585938 17.820312 13.429688 17.722656 13.3125 L 15.964844 11.152344 C 15.875 11.035156 15.722656 10.972656 15.574219 10.996094 C 15.425781 11.019531 15.300781 11.121094 15.25 11.261719 C 15.199219 11.40625 15.226562 11.5625 15.328125 11.675781 Z M 18.933594 12.640625 C 18.992188 12.800781 19.148438 12.90625 19.316406 12.90625 C 19.453125 12.90625 19.574219 12.839844 19.652344 12.730469 C 19.730469 12.621094 19.746094 12.480469 19.703125 12.355469 L 18.925781 10.324219 C 18.84375 10.113281 18.605469 10.007812 18.394531 10.089844 C 18.179688 10.171875 18.074219 10.410156 18.15625 10.625 Z M 21.132812 12.703125 C 21.351562 12.703125 21.53125 12.539062 21.546875 12.320312 L 21.683594 10.570312 C 21.695312 10.460938 21.660156 10.351562 21.589844 10.265625 C 21.515625 10.183594 21.414062 10.128906 21.304688 10.121094 C 21.195312 10.113281 21.085938 10.144531 21 10.21875 C 20.917969 10.289062 20.867188 10.390625 20.859375 10.503906 L 20.722656 12.261719 C 20.714844 12.375 20.753906 12.488281 20.832031 12.570312 C 20.910156 12.65625 21.019531 12.703125 21.132812 12.703125 Z M 21.132812 12.703125 "/>
<path style=" stroke:none;fill-rule:nonzero;fill:rgb(11.372549%,11.372549%,10.588235%);fill-opacity:1;" d="M 50.484375 26.929688 C 48.335938 26.246094 43.28125 26.308594 39.175781 26.496094 C 41.929688 23.015625 41.929688 19.652344 41.4375 18.070312 C 41.0625 16.886719 40.484375 13.898438 41.222656 12.734375 C 41.359375 12.5 41.601562 12.339844 41.871094 12.3125 C 42.84375 12.183594 43.019531 11.175781 43.15625 10.371094 C 43.191406 10.082031 43.257812 9.796875 43.347656 9.519531 C 43.515625 9.222656 43.742188 8.964844 44.019531 8.765625 C 44.792969 8.148438 45.394531 7.347656 45.769531 6.433594 C 46.644531 4.277344 45.472656 3.214844 45.421875 3.171875 C 45.378906 3.136719 45.324219 3.109375 45.269531 3.097656 L 45.191406 3.097656 C 44.292969 2.863281 43.335938 3.007812 42.542969 3.5 C 42.171875 3.683594 41.707031 3.902344 41.023438 4.191406 C 39.554688 4.933594 37.773438 4.636719 36.621094 3.460938 C 34.144531 1.082031 32.398438 0.390625 25.566406 0.390625 C 18.734375 0.390625 17.011719 1.085938 14.554688 3.460938 C 13.402344 4.636719 11.621094 4.933594 10.152344 4.191406 C 9.636719 3.976562 9.132812 3.746094 8.632812 3.5 C 7.84375 3.007812 6.882812 2.863281 5.984375 3.097656 L 5.90625 3.097656 C 5.851562 3.109375 5.796875 3.136719 5.753906 3.171875 C 5.703125 3.214844 4.53125 4.273438 5.40625 6.433594 C 5.78125 7.347656 6.386719 8.148438 7.15625 8.765625 C 7.433594 8.964844 7.660156 9.222656 7.828125 9.519531 C 7.886719 9.808594 7.917969 10.101562 7.921875 10.390625 C 8.058594 11.203125 8.230469 12.207031 9.203125 12.332031 C 9.476562 12.363281 9.71875 12.519531 9.855469 12.757812 C 10.59375 13.921875 10.015625 16.910156 9.640625 18.09375 C 9.136719 19.675781 9.160156 23.054688 11.902344 26.519531 C 7.796875 26.332031 2.742188 26.269531 0.59375 26.953125 C 0.378906 27.023438 0.257812 27.257812 0.328125 27.472656 C 0.398438 27.691406 0.628906 27.8125 0.847656 27.742188 C 3.097656 27.023438 9.105469 27.191406 12.507812 27.378906 L 12.644531 27.378906 L 13.003906 27.757812 C 8.773438 27.820312 5.90625 28.109375 4.46875 28.628906 C 4.328125 28.675781 4.222656 28.796875 4.195312 28.945312 C 4.164062 29.09375 4.21875 29.246094 4.335938 29.339844 C 4.453125 29.4375 4.609375 29.460938 4.75 29.40625 C 6.171875 28.894531 9.320312 28.605469 13.867188 28.574219 C 14.058594 28.738281 14.257812 28.898438 14.457031 29.058594 C 10.894531 29.257812 5.097656 29.726562 2.894531 30.714844 C 2.707031 30.816406 2.625 31.046875 2.710938 31.242188 C 2.796875 31.441406 3.023438 31.539062 3.226562 31.46875 C 5.523438 30.460938 12.132812 30.011719 15.457031 29.84375 L 16.007812 30.238281 L 16.0625 30.277344 C 12.601562 30.613281 10.234375 31.050781 9.023438 31.578125 C 8.832031 31.679688 8.753906 31.910156 8.839844 32.109375 C 8.925781 32.308594 9.148438 32.40625 9.351562 32.332031 C 10.492188 31.832031 12.902344 31.402344 16.355469 31.078125 C 16.339844 32.097656 16.464844 33.113281 16.730469 34.097656 C 17.628906 36.480469 18.855469 37.0625 20.285156 37.183594 C 20.492188 37.574219 20.777344 37.914062 21.125 38.183594 C 20.355469 38.882812 19.722656 39.71875 19.257812 40.648438 C 19.175781 40.859375 19.28125 41.101562 19.492188 41.183594 C 19.707031 41.265625 19.945312 41.160156 20.027344 40.945312 C 20.175781 40.558594 20.621094 39.84375 21.839844 38.636719 C 22.191406 38.816406 22.558594 38.957031 22.941406 39.066406 C 22.671875 39.664062 22.503906 40.304688 22.433594 40.957031 C 22.429688 41.066406 22.464844 41.171875 22.539062 41.253906 C 22.613281 41.335938 22.714844 41.386719 22.824219 41.390625 C 23.042969 41.390625 23.226562 41.21875 23.238281 41 C 23.308594 40.394531 23.480469 39.804688 23.738281 39.253906 C 24.929688 39.453125 26.148438 39.453125 27.339844 39.253906 C 27.597656 39.804688 27.765625 40.394531 27.839844 41 C 27.851562 41.21875 28.03125 41.390625 28.253906 41.390625 C 28.363281 41.386719 28.464844 41.335938 28.539062 41.253906 C 28.613281 41.171875 28.648438 41.066406 28.644531 40.957031 C 28.582031 40.300781 28.414062 39.664062 28.152344 39.058594 C 28.535156 38.953125 28.902344 38.808594 29.253906 38.628906 C 30.472656 39.835938 30.90625 40.554688 31.066406 40.941406 C 31.148438 41.152344 31.386719 41.257812 31.601562 41.175781 C 31.8125 41.09375 31.917969 40.855469 31.835938 40.640625 C 31.371094 39.710938 30.738281 38.875 29.96875 38.175781 C 30.316406 37.90625 30.601562 37.566406 30.808594 37.179688 C 32.238281 37.058594 33.464844 36.480469 34.359375 34.097656 C 34.617188 33.117188 34.734375 32.105469 34.714844 31.09375 C 38.167969 31.417969 40.585938 31.847656 41.71875 32.351562 C 41.855469 32.421875 42.023438 32.414062 42.148438 32.324219 C 42.277344 32.234375 42.34375 32.082031 42.320312 31.929688 C 42.300781 31.777344 42.195312 31.644531 42.050781 31.59375 C 40.828125 31.042969 38.414062 30.621094 34.890625 30.28125 L 35.332031 29.972656 L 35.503906 29.851562 C 38.804688 30.019531 45.523438 30.464844 47.847656 31.507812 C 48.050781 31.578125 48.273438 31.480469 48.359375 31.28125 C 48.445312 31.085938 48.367188 30.851562 48.175781 30.75 C 45.941406 29.769531 40.132812 29.308594 36.578125 29.097656 C 36.785156 28.941406 36.988281 28.777344 37.1875 28.613281 C 41.746094 28.640625 44.894531 28.925781 46.320312 29.445312 C 46.535156 29.515625 46.761719 29.402344 46.839844 29.191406 C 46.914062 28.984375 46.808594 28.75 46.601562 28.667969 C 45.171875 28.148438 42.300781 27.859375 38.070312 27.796875 L 38.425781 27.417969 L 38.5625 27.417969 C 41.949219 27.246094 47.972656 27.0625 50.222656 27.78125 C 50.457031 27.851562 50.707031 27.71875 50.777344 27.484375 C 50.847656 27.25 50.71875 27.003906 50.484375 26.929688 Z M 27.359375 37.355469 C 27.246094 37.160156 26.996094 37.089844 26.796875 37.203125 C 26.597656 37.320312 26.53125 37.570312 26.644531 37.769531 C 26.734375 37.917969 26.859375 38.15625 26.996094 38.429688 C 26.042969 38.570312 25.078125 38.570312 24.125 38.429688 C 24.316406 38.039062 24.472656 37.773438 24.476562 37.769531 C 24.589844 37.570312 24.523438 37.320312 24.324219 37.203125 C 24.128906 37.089844 23.875 37.160156 23.761719 37.355469 C 23.761719 37.390625 23.53125 37.757812 23.28125 38.269531 C 22.53125 38.109375 21.84375 37.726562 21.3125 37.167969 L 22.648438 37.167969 C 23.855469 37.164062 24.964844 36.5 25.539062 35.4375 C 26.121094 36.503906 27.238281 37.167969 28.449219 37.164062 L 29.789062 37.164062 C 29.257812 37.71875 28.570312 38.105469 27.816406 38.265625 C 27.570312 37.769531 27.359375 37.40625 27.339844 37.367188 Z M 36.773438 27.839844 L 36.730469 27.875 C 36.269531 28.261719 35.757812 28.632812 35.253906 28.976562 L 34.824219 28.976562 C 34.898438 28.035156 35.074219 27.183594 35.414062 26.929688 C 35.597656 26.789062 35.628906 26.523438 35.488281 26.339844 C 35.34375 26.160156 35.082031 26.125 34.898438 26.269531 C 34.347656 26.726562 34.105469 27.726562 34 28.933594 L 33.664062 28.933594 C 33.554688 28.925781 33.445312 28.964844 33.367188 29.042969 C 33.285156 29.117188 33.242188 29.222656 33.242188 29.335938 C 33.234375 29.5625 33.414062 29.753906 33.640625 29.757812 L 33.949219 29.757812 L 33.949219 30.167969 L 33.851562 30.167969 C 33.625 30.152344 33.429688 30.316406 33.40625 30.542969 C 33.386719 30.769531 33.554688 30.96875 33.78125 30.988281 L 33.894531 30.988281 C 33.910156 31.925781 33.808594 32.863281 33.585938 33.773438 C 32.8125 35.839844 31.878906 36.277344 30.53125 36.34375 L 28.449219 36.34375 C 27.089844 36.339844 25.980469 35.246094 25.957031 33.882812 C 26.148438 33.703125 26.363281 33.546875 26.597656 33.421875 C 27.144531 33.066406 27.957031 32.582031 27.660156 31.882812 C 27.554688 31.640625 27.625 31.523438 28.570312 30.878906 L 28.917969 30.640625 C 29.328125 30.421875 29.601562 30.003906 29.632812 29.539062 C 29.609375 29.179688 29.414062 28.851562 29.113281 28.65625 C 28.925781 28.542969 28.683594 28.597656 28.5625 28.777344 C 28.453125 28.964844 28.503906 29.203125 28.675781 29.328125 C 28.722656 29.363281 28.820312 29.457031 28.824219 29.535156 C 28.832031 29.609375 28.730469 29.757812 28.460938 29.945312 L 28.121094 30.183594 C 27.222656 30.789062 26.519531 31.285156 26.910156 32.152344 C 26.867188 32.289062 26.417969 32.558594 26.175781 32.703125 C 25.960938 32.832031 25.753906 32.972656 25.554688 33.128906 C 25.359375 32.972656 25.148438 32.832031 24.933594 32.703125 C 24.671875 32.558594 24.425781 32.386719 24.199219 32.191406 C 24.59375 31.269531 23.882812 30.789062 22.988281 30.179688 L 22.648438 29.941406 C 22.382812 29.753906 22.285156 29.605469 22.285156 29.527344 C 22.285156 29.449219 22.382812 29.355469 22.429688 29.324219 C 22.605469 29.195312 22.652344 28.949219 22.535156 28.765625 C 22.414062 28.578125 22.171875 28.519531 21.980469 28.628906 C 21.679688 28.824219 21.484375 29.152344 21.460938 29.511719 C 21.496094 29.976562 21.765625 30.394531 22.175781 30.613281 L 22.523438 30.851562 C 23.472656 31.496094 23.539062 31.613281 23.4375 31.855469 C 23.136719 32.558594 23.925781 33.039062 24.5 33.390625 C 24.71875 33.519531 24.933594 33.660156 25.136719 33.816406 C 25.128906 35.195312 24.011719 36.308594 22.636719 36.308594 L 21.777344 36.308594 C 19.730469 36.359375 18.476562 36.386719 17.496094 33.738281 C 17.277344 32.828125 17.171875 31.894531 17.1875 30.957031 L 17.304688 30.957031 C 17.53125 30.9375 17.699219 30.734375 17.679688 30.507812 C 17.660156 30.277344 17.460938 30.109375 17.230469 30.128906 L 17.152344 30.128906 L 17.152344 29.722656 L 17.460938 29.722656 C 17.691406 29.722656 17.875 29.535156 17.875 29.308594 C 17.875 29.078125 17.691406 28.894531 17.460938 28.894531 L 17.125 28.894531 C 17.023438 27.6875 16.808594 26.6875 16.230469 26.230469 C 16.035156 26.074219 15.753906 26.105469 15.597656 26.296875 C 15.441406 26.492188 15.46875 26.773438 15.664062 26.929688 C 16.003906 27.203125 16.164062 28.035156 16.246094 28.976562 L 15.722656 28.976562 C 15.253906 28.625 14.785156 28.253906 14.359375 27.875 C 14.332031 27.84375 14.304688 27.820312 14.273438 27.796875 C 14.132812 27.671875 13.988281 27.542969 13.855469 27.417969 L 15.140625 27.5 L 15.171875 27.5 C 15.402344 27.507812 15.59375 27.332031 15.601562 27.101562 C 15.609375 26.875 15.433594 26.679688 15.207031 26.671875 C 15.207031 26.671875 14.339844 26.605469 13.003906 26.535156 C 10.007812 23.121094 9.929688 19.808594 10.40625 18.308594 C 10.40625 18.265625 11.6875 14.109375 10.53125 12.285156 C 10.265625 11.851562 9.820312 11.5625 9.320312 11.496094 C 8.980469 11.449219 8.867188 10.945312 8.769531 10.234375 C 8.722656 9.886719 8.640625 9.546875 8.527344 9.21875 C 8.320312 8.792969 8.011719 8.425781 7.628906 8.144531 C 6.953125 7.613281 6.425781 6.914062 6.101562 6.121094 C 5.550781 4.820312 5.972656 4.101562 6.15625 3.871094 C 6.558594 3.835938 6.960938 3.941406 7.292969 4.167969 C 7.332031 4.203125 11.433594 7.210938 13.234375 7.210938 L 13.425781 7.210938 C 11.777344 8.398438 10.808594 9.914062 10.808594 11.394531 C 10.808594 11.625 10.992188 11.808594 11.21875 11.808594 C 11.449219 11.808594 11.632812 11.625 11.632812 11.394531 C 11.632812 9.847656 13.0625 8.148438 15.28125 7.0625 C 16.144531 6.933594 16.980469 6.65625 17.75 6.242188 C 17.882812 6.171875 17.964844 6.035156 17.96875 5.886719 C 17.972656 5.734375 17.894531 5.59375 17.765625 5.519531 C 17.636719 5.445312 17.476562 5.441406 17.347656 5.519531 C 16.054688 6.15625 14.625 6.457031 13.183594 6.390625 C 12.496094 6.390625 11.179688 5.722656 9.957031 4.984375 C 11.695312 5.765625 13.738281 5.386719 15.078125 4.03125 C 17.28125 1.925781 18.652344 1.191406 25.539062 1.191406 C 32.425781 1.191406 33.796875 1.929688 36 4.03125 C 36.835938 4.886719 37.980469 5.371094 39.175781 5.382812 C 39.824219 5.371094 40.464844 5.246094 41.070312 5.007812 C 39.851562 5.738281 38.535156 6.402344 37.855469 6.402344 C 36.414062 6.46875 34.984375 6.167969 33.691406 5.53125 C 33.492188 5.425781 33.246094 5.496094 33.136719 5.695312 C 33.027344 5.890625 33.097656 6.136719 33.289062 6.253906 C 34.0625 6.671875 34.902344 6.953125 35.773438 7.085938 C 37.976562 8.1875 39.421875 9.839844 39.421875 11.417969 C 39.421875 11.644531 39.609375 11.832031 39.835938 11.832031 C 40.0625 11.832031 40.25 11.644531 40.25 11.417969 C 40.25 9.929688 39.273438 8.414062 37.628906 7.234375 L 37.871094 7.234375 C 39.671875 7.234375 43.773438 4.222656 43.8125 4.191406 C 44.144531 3.964844 44.542969 3.859375 44.945312 3.890625 C 45.125 4.128906 45.523438 4.847656 45 6.140625 C 44.671875 6.9375 44.144531 7.636719 43.46875 8.164062 C 43.089844 8.445312 42.78125 8.816406 42.570312 9.238281 C 42.457031 9.570312 42.375 9.910156 42.328125 10.253906 C 42.203125 10.988281 42.097656 11.472656 41.777344 11.515625 C 41.265625 11.578125 40.808594 11.875 40.539062 12.316406 C 39.378906 14.140625 40.652344 18.304688 40.667969 18.34375 C 41.144531 19.847656 41.0625 23.160156 38.070312 26.566406 C 36.753906 26.640625 35.867188 26.707031 35.867188 26.707031 C 35.636719 26.714844 35.460938 26.90625 35.46875 27.136719 C 35.480469 27.363281 35.671875 27.542969 35.898438 27.53125 L 35.933594 27.53125 L 37.214844 27.449219 C 37.101562 27.578125 36.929688 27.707031 36.773438 27.839844 Z M 36.773438 27.839844 "/>
<path style=" stroke:none;fill-rule:nonzero;fill:rgb(11.372549%,11.372549%,10.588235%);fill-opacity:1;" d="M 33.671875 13.992188 C 33.792969 13.992188 33.910156 13.933594 33.988281 13.839844 L 35.746094 11.675781 C 35.84375 11.5625 35.875 11.40625 35.820312 11.261719 C 35.769531 11.121094 35.644531 11.019531 35.496094 10.996094 C 35.347656 10.972656 35.199219 11.035156 35.105469 11.152344 L 33.351562 13.3125 C 33.25 13.4375 33.230469 13.609375 33.300781 13.75 C 33.367188 13.894531 33.511719 13.984375 33.671875 13.988281 Z M 31.632812 12.878906 C 31.683594 12.886719 31.734375 12.886719 31.78125 12.878906 C 31.953125 12.878906 32.105469 12.773438 32.167969 12.613281 L 32.941406 10.585938 C 33.027344 10.371094 32.917969 10.132812 32.707031 10.050781 C 32.492188 9.96875 32.253906 10.074219 32.171875 10.289062 L 31.394531 12.316406 C 31.347656 12.421875 31.347656 12.542969 31.390625 12.648438 C 31.4375 12.757812 31.523438 12.839844 31.632812 12.878906 Z M 29.941406 12.707031 C 30.050781 12.699219 30.15625 12.648438 30.226562 12.5625 C 30.296875 12.480469 30.332031 12.371094 30.324219 12.261719 L 30.183594 10.503906 C 30.167969 10.273438 29.96875 10.105469 29.738281 10.121094 C 29.511719 10.140625 29.339844 10.339844 29.359375 10.570312 L 29.496094 12.328125 C 29.503906 12.4375 29.558594 12.539062 29.640625 12.609375 C 29.726562 12.683594 29.832031 12.71875 29.941406 12.707031 Z M 29.941406 12.707031 "/>
<path style=" stroke:none;fill-rule:nonzero;fill:rgb(11.372549%,11.372549%,10.588235%);fill-opacity:1;" d="M 19.582031 31.804688 C 19.582031 32.125 19.324219 32.382812 19.003906 32.382812 C 18.683594 32.382812 18.425781 32.125 18.425781 31.804688 C 18.425781 31.484375 18.683594 31.226562 19.003906 31.226562 C 19.324219 31.226562 19.582031 31.484375 19.582031 31.804688 Z M 19.582031 31.804688 "/>
<path style=" stroke:none;fill-rule:nonzero;fill:rgb(11.372549%,11.372549%,10.588235%);fill-opacity:1;" d="M 19.773438 33.773438 C 19.773438 34.09375 19.515625 34.351562 19.195312 34.351562 C 18.878906 34.351562 18.617188 34.09375 18.617188 33.773438 C 18.617188 33.453125 18.878906 33.195312 19.195312 33.195312 C 19.515625 33.195312 19.773438 33.453125 19.773438 33.773438 Z M 19.773438 33.773438 "/>
<path style=" stroke:none;fill-rule:nonzero;fill:rgb(11.372549%,11.372549%,10.588235%);fill-opacity:1;" d="M 21.285156 35.070312 C 21.285156 35.386719 21.023438 35.648438 20.707031 35.648438 C 20.386719 35.648438 20.128906 35.386719 20.128906 35.070312 C 20.128906 34.75 20.386719 34.488281 20.707031 34.488281 C 21.023438 34.488281 21.285156 34.75 21.285156 35.070312 Z M 21.285156 35.070312 "/>
<path style=" stroke:none;fill-rule:nonzero;fill:rgb(11.372549%,11.372549%,10.588235%);fill-opacity:1;" d="M 21.789062 33.054688 C 21.789062 33.375 21.53125 33.636719 21.210938 33.636719 C 20.890625 33.636719 20.632812 33.375 20.632812 33.054688 C 20.632812 32.738281 20.890625 32.476562 21.210938 32.476562 C 21.53125 32.476562 21.789062 32.738281 21.789062 33.054688 Z M 21.789062 33.054688 "/>
<path style=" stroke:none;fill-rule:nonzero;fill:rgb(11.372549%,11.372549%,10.588235%);fill-opacity:1;" d="M 23.398438 34.070312 C 23.398438 34.390625 23.136719 34.648438 22.820312 34.648438 C 22.5 34.648438 22.242188 34.390625 22.242188 34.070312 C 22.242188 33.75 22.5 33.492188 22.820312 33.492188 C 23.136719 33.492188 23.398438 33.75 23.398438 34.070312 Z M 23.398438 34.070312 "/>
<path style=" stroke:none;fill-rule:nonzero;fill:rgb(11.372549%,11.372549%,10.588235%);fill-opacity:1;" d="M 32.652344 31.804688 C 32.652344 32.125 32.394531 32.382812 32.074219 32.382812 C 31.753906 32.382812 31.496094 32.125 31.496094 31.804688 C 31.496094 31.484375 31.753906 31.226562 32.074219 31.226562 C 32.394531 31.226562 32.652344 31.484375 32.652344 31.804688 Z M 32.652344 31.804688 "/>
<path style=" stroke:none;fill-rule:nonzero;fill:rgb(11.372549%,11.372549%,10.588235%);fill-opacity:1;" d="M 32.457031 33.773438 C 32.457031 34.09375 32.199219 34.351562 31.878906 34.351562 C 31.5625 34.351562 31.304688 34.09375 31.304688 33.773438 C 31.304688 33.453125 31.5625 33.195312 31.878906 33.195312 C 32.199219 33.195312 32.457031 33.453125 32.457031 33.773438 Z M 32.457031 33.773438 "/>
<path style=" stroke:none;fill-rule:nonzero;fill:rgb(11.372549%,11.372549%,10.588235%);fill-opacity:1;" d="M 30.949219 35.070312 C 30.949219 35.386719 30.691406 35.648438 30.371094 35.648438 C 30.054688 35.648438 29.792969 35.386719 29.792969 35.070312 C 29.792969 34.75 30.054688 34.488281 30.371094 34.488281 C 30.691406 34.488281 30.949219 34.75 30.949219 35.070312 Z M 30.949219 35.070312 "/>
<path style=" stroke:none;fill-rule:nonzero;fill:rgb(11.372549%,11.372549%,10.588235%);fill-opacity:1;" d="M 30.445312 33.054688 C 30.445312 33.375 30.183594 33.636719 29.867188 33.636719 C 29.546875 33.636719 29.289062 33.375 29.289062 33.054688 C 29.289062 32.738281 29.546875 32.476562 29.867188 32.476562 C 30.183594 32.476562 30.445312 32.738281 30.445312 33.054688 Z M 30.445312 33.054688 "/>
<path style=" stroke:none;fill-rule:nonzero;fill:rgb(11.372549%,11.372549%,10.588235%);fill-opacity:1;" d="M 28.835938 34.070312 C 28.835938 34.390625 28.578125 34.648438 28.257812 34.648438 C 27.9375 34.648438 27.679688 34.390625 27.679688 34.070312 C 27.679688 33.75 27.9375 33.492188 28.257812 33.492188 C 28.578125 33.492188 28.835938 33.75 28.835938 34.070312 Z M 28.835938 34.070312 "/>
<path style=" stroke:none;fill-rule:nonzero;fill:rgb(11.372549%,11.372549%,10.588235%);fill-opacity:1;" d="M 27.5 22.246094 C 27.390625 22.234375 27.28125 22.269531 27.195312 22.34375 C 27.113281 22.414062 27.0625 22.515625 27.050781 22.625 C 26.898438 23.757812 26.363281 24.804688 25.539062 25.597656 C 24.714844 24.804688 24.1875 23.753906 24.035156 22.621094 C 24.019531 22.390625 23.816406 22.222656 23.589844 22.238281 C 23.363281 22.257812 23.191406 22.457031 23.210938 22.6875 C 23.410156 24.15625 24.140625 25.5 25.261719 26.46875 C 25.335938 26.527344 25.429688 26.5625 25.523438 26.5625 C 25.617188 26.5625 25.707031 26.527344 25.78125 26.46875 C 26.90625 25.5 27.636719 24.15625 27.835938 22.6875 C 27.851562 22.476562 27.707031 22.285156 27.5 22.246094 Z M 20.238281 23.734375 C 20.042969 23.628906 19.800781 23.695312 19.6875 23.882812 C 19.578125 24.074219 19.433594 24.28125 19.285156 24.496094 C 18.546875 25.5625 17.433594 27.183594 19.003906 28.90625 C 19.164062 29.039062 19.394531 29.035156 19.546875 28.894531 C 19.699219 28.753906 19.726562 28.523438 19.609375 28.355469 C 18.570312 27.222656 19.097656 26.246094 19.960938 24.992188 C 20.121094 24.753906 20.277344 24.53125 20.398438 24.324219 C 20.460938 24.226562 20.476562 24.105469 20.445312 23.992188 C 20.417969 23.882812 20.339844 23.785156 20.238281 23.734375 Z M 31.425781 23.882812 C 31.308594 23.683594 31.058594 23.617188 30.859375 23.730469 C 30.660156 23.84375 30.59375 24.097656 30.707031 24.296875 C 30.828125 24.503906 30.984375 24.726562 31.144531 24.964844 C 32.007812 26.21875 32.535156 27.195312 31.496094 28.324219 C 31.371094 28.429688 31.320312 28.59375 31.363281 28.75 C 31.40625 28.90625 31.53125 29.023438 31.691406 29.050781 C 31.851562 29.078125 32.007812 29.011719 32.101562 28.878906 C 33.671875 27.171875 32.558594 25.570312 31.820312 24.46875 C 31.683594 24.28125 31.539062 24.074219 31.425781 23.882812 Z M 21.074219 29.136719 C 21.144531 28.917969 21.023438 28.683594 20.808594 28.617188 C 20.589844 28.546875 20.355469 28.664062 20.285156 28.882812 C 19.96875 29.90625 20.40625 31.011719 21.339844 31.539062 C 21.535156 31.652344 21.789062 31.585938 21.902344 31.386719 C 22.015625 31.191406 21.949219 30.9375 21.75 30.824219 C 21.15625 30.492188 20.875 29.789062 21.074219 29.136719 Z M 29.734375 31.523438 C 30.664062 30.996094 31.101562 29.890625 30.785156 28.867188 C 30.714844 28.648438 30.484375 28.527344 30.265625 28.597656 C 30.046875 28.667969 29.929688 28.902344 29.996094 29.121094 C 30.191406 29.765625 29.910156 30.460938 29.320312 30.789062 C 29.125 30.90625 29.054688 31.15625 29.167969 31.355469 C 29.285156 31.554688 29.535156 31.621094 29.734375 31.507812 Z M 27.125 29.21875 C 26.722656 29.679688 26.144531 29.941406 25.535156 29.941406 C 24.925781 29.941406 24.347656 29.679688 23.949219 29.21875 C 23.796875 29.042969 23.53125 29.023438 23.351562 29.175781 C 23.175781 29.328125 23.15625 29.59375 23.308594 29.769531 C 23.867188 30.421875 24.679688 30.796875 25.535156 30.796875 C 26.386719 30.796875 27.199219 30.421875 27.757812 29.769531 C 27.910156 29.59375 27.890625 29.328125 27.714844 29.175781 C 27.535156 29.023438 27.269531 29.042969 27.117188 29.21875 Z M 14.808594 21.152344 C 14.679688 21.066406 14.511719 21.0625 14.375 21.140625 C 14.242188 21.214844 14.160156 21.363281 14.167969 21.519531 C 14.175781 21.675781 14.269531 21.8125 14.414062 21.875 C 15.859375 22.675781 16.488281 23.855469 16.488281 24.28125 C 16.488281 24.507812 16.671875 24.691406 16.902344 24.691406 C 17.128906 24.691406 17.3125 24.507812 17.3125 24.28125 C 17.3125 23.425781 16.378906 22.019531 14.808594 21.152344 Z M 36.875 21.320312 C 36.765625 21.125 36.523438 21.050781 36.324219 21.152344 C 34.742188 22.019531 33.796875 23.425781 33.796875 24.285156 C 33.796875 24.511719 33.980469 24.699219 34.210938 24.699219 C 34.4375 24.699219 34.621094 24.511719 34.621094 24.285156 C 34.621094 23.859375 35.25 22.675781 36.699219 21.882812 C 36.796875 21.832031 36.871094 21.742188 36.902344 21.636719 C 36.9375 21.53125 36.925781 21.417969 36.875 21.320312 Z M 36.875 21.320312 "/>
<path style=" stroke:none;fill-rule:nonzero;fill:rgb(0%,0%,0%);fill-opacity:1;" d="M 62.835938 31.417969 L 62.332031 30.15625 L 60.410156 30.15625 L 59.910156 31.417969 L 59.585938 31.417969 L 61.191406 27.394531 L 61.554688 27.394531 L 63.15625 31.417969 Z M 60.523438 29.875 L 62.222656 29.875 L 61.523438 28.121094 L 61.375 27.695312 L 61.371094 27.695312 L 61.222656 28.109375 Z M 68.394531 29.449219 L 70.046875 29.449219 L 70.046875 31.417969 L 69.800781 31.417969 L 69.789062 30.71875 C 69.679688 30.960938 69.507812 31.148438 69.277344 31.28125 C 69.042969 31.414062 68.75 31.480469 68.40625 31.480469 C 68.042969 31.480469 67.722656 31.394531 67.449219 31.226562 C 67.175781 31.058594 66.964844 30.816406 66.816406 30.503906 C 66.667969 30.191406 66.59375 29.824219 66.59375 29.40625 C 66.59375 28.988281 66.671875 28.621094 66.824219 28.308594 C 66.972656 27.996094 67.1875 27.753906 67.464844 27.585938 C 67.738281 27.417969 68.058594 27.332031 68.425781 27.332031 C 68.835938 27.332031 69.171875 27.414062 69.429688 27.578125 C 69.691406 27.738281 69.886719 27.988281 70.015625 28.320312 L 69.734375 28.464844 C 69.640625 28.1875 69.484375 27.976562 69.261719 27.828125 C 69.042969 27.683594 68.761719 27.613281 68.425781 27.613281 C 68.125 27.613281 67.863281 27.683594 67.632812 27.828125 C 67.40625 27.976562 67.230469 28.183594 67.105469 28.453125 C 66.980469 28.722656 66.914062 29.039062 66.914062 29.40625 C 66.914062 29.964844 67.046875 30.402344 67.316406 30.722656 C 67.582031 31.039062 67.949219 31.199219 68.417969 31.199219 C 68.710938 31.199219 68.960938 31.140625 69.164062 31.027344 C 69.367188 30.910156 69.515625 30.757812 69.609375 30.570312 C 69.710938 30.378906 69.757812 30.175781 69.757812 29.960938 L 69.757812 29.738281 L 68.394531 29.738281 Z M 74.472656 31.140625 L 77.007812 31.140625 L 77.007812 31.417969 L 74.167969 31.417969 L 74.167969 27.394531 L 76.914062 27.394531 L 76.914062 27.671875 L 74.472656 27.671875 L 74.472656 29.226562 L 76.398438 29.226562 L 76.398438 29.515625 L 74.472656 29.515625 Z M 84.023438 27.394531 L 84.023438 31.417969 L 83.644531 31.417969 L 81.511719 28.261719 L 81.21875 27.726562 L 81.207031 27.726562 L 81.230469 28.230469 L 81.230469 31.417969 L 80.933594 31.417969 L 80.933594 27.394531 L 81.320312 27.394531 L 83.445312 30.546875 L 83.75 31.085938 L 83.734375 30.582031 L 83.734375 27.394531 Z M 91.511719 30.398438 C 91.398438 30.742188 91.199219 31.007812 90.917969 31.195312 C 90.636719 31.382812 90.296875 31.480469 89.90625 31.480469 C 89.539062 31.480469 89.21875 31.394531 88.941406 31.226562 C 88.664062 31.058594 88.453125 30.816406 88.300781 30.503906 C 88.152344 30.191406 88.078125 29.824219 88.078125 29.40625 C 88.078125 28.988281 88.152344 28.621094 88.300781 28.308594 C 88.453125 27.996094 88.664062 27.753906 88.941406 27.585938 C 89.21875 27.417969 89.539062 27.332031 89.898438 27.332031 C 90.699219 27.332031 91.21875 27.664062 91.457031 28.328125 L 91.160156 28.464844 C 91.066406 28.179688 90.917969 27.96875 90.710938 27.824219 C 90.503906 27.683594 90.238281 27.613281 89.914062 27.613281 C 89.617188 27.613281 89.351562 27.683594 89.125 27.828125 C 88.894531 27.976562 88.714844 28.183594 88.589844 28.453125 C 88.464844 28.722656 88.402344 29.039062 88.402344 29.40625 C 88.402344 29.773438 88.464844 30.089844 88.589844 30.359375 C 88.710938 30.628906 88.882812 30.835938 89.109375 30.984375 C 89.335938 31.128906 89.601562 31.199219 89.90625 31.199219 C 90.230469 31.199219 90.507812 31.121094 90.730469 30.960938 C 90.957031 30.800781 91.117188 30.574219 91.207031 30.285156 Z M 95.753906 31.140625 L 98.292969 31.140625 L 98.292969 31.417969 L 95.449219 31.417969 L 95.449219 27.394531 L 98.195312 27.394531 L 98.195312 27.671875 L 95.753906 27.671875 L 95.753906 29.226562 L 97.6875 29.226562 L 97.6875 29.515625 L 95.753906 29.515625 Z M 108.433594 27.394531 C 109.074219 27.394531 109.570312 27.5625 109.917969 27.902344 C 110.265625 28.242188 110.441406 28.734375 110.441406 29.375 C 110.441406 30.035156 110.265625 30.539062 109.917969 30.890625 C 109.570312 31.242188 109.074219 31.417969 108.433594 31.417969 L 107.167969 31.417969 L 107.167969 27.394531 Z M 108.460938 31.140625 C 108.996094 31.140625 109.40625 30.988281 109.691406 30.683594 C 109.980469 30.378906 110.121094 29.945312 110.121094 29.375 C 110.121094 28.828125 109.980469 28.410156 109.691406 28.117188 C 109.40625 27.820312 108.996094 27.671875 108.460938 27.671875 L 107.472656 27.671875 L 107.472656 31.140625 Z M 114.804688 31.140625 L 117.339844 31.140625 L 117.339844 31.417969 L 114.5 31.417969 L 114.5 27.394531 L 117.246094 27.394531 L 117.246094 27.671875 L 114.804688 27.671875 L 114.804688 29.226562 L 116.730469 29.226562 L 116.730469 29.515625 L 114.804688 29.515625 Z M 128.207031 28.597656 L 127.398438 31.417969 L 127.019531 31.417969 L 125.769531 27.394531 L 126.097656 27.394531 L 127.210938 31.167969 L 128.265625 27.394531 L 128.617188 27.394531 L 129.667969 31.175781 L 130.796875 27.394531 L 131.109375 27.394531 L 129.851562 31.417969 L 129.476562 31.417969 L 128.664062 28.597656 L 128.441406 27.726562 L 128.433594 27.726562 Z M 135.269531 31.140625 L 137.808594 31.140625 L 137.808594 31.417969 L 134.964844 31.417969 L 134.964844 27.394531 L 137.714844 27.394531 L 137.714844 27.671875 L 135.269531 27.671875 L 135.269531 29.226562 L 137.199219 29.226562 L 137.199219 29.515625 L 135.269531 29.515625 Z M 141.738281 31.417969 L 141.738281 27.394531 L 143.152344 27.394531 C 143.59375 27.394531 143.925781 27.484375 144.140625 27.667969 C 144.355469 27.851562 144.464844 28.117188 144.464844 28.460938 C 144.464844 28.695312 144.398438 28.894531 144.273438 29.058594 C 144.144531 29.21875 143.964844 29.328125 143.726562 29.375 L 143.726562 29.378906 C 143.988281 29.421875 144.195312 29.527344 144.347656 29.699219 C 144.5 29.871094 144.578125 30.082031 144.578125 30.332031 C 144.578125 30.679688 144.453125 30.945312 144.207031 31.136719 C 143.960938 31.324219 143.609375 31.417969 143.152344 31.417969 Z M 142.039062 29.25 L 143.164062 29.25 C 143.816406 29.25 144.140625 28.988281 144.140625 28.460938 C 144.140625 27.9375 143.816406 27.671875 143.164062 27.671875 L 142.039062 27.671875 Z M 142.039062 31.140625 L 143.214844 31.140625 C 143.558594 31.140625 143.816406 31.070312 143.988281 30.929688 C 144.164062 30.789062 144.25 30.59375 144.25 30.332031 C 144.25 30.070312 144.164062 29.871094 143.988281 29.734375 C 143.816406 29.597656 143.558594 29.527344 143.214844 29.527344 L 142.039062 29.527344 Z M 154.84375 27.394531 C 155.488281 27.394531 155.980469 27.5625 156.324219 27.902344 C 156.675781 28.242188 156.847656 28.734375 156.847656 29.375 C 156.847656 30.035156 156.675781 30.539062 156.324219 30.890625 C 155.980469 31.242188 155.488281 31.417969 154.84375 31.417969 L 153.578125 31.417969 L 153.578125 27.394531 Z M 154.871094 31.140625 C 155.40625 31.140625 155.816406 30.988281 156.105469 30.683594 C 156.386719 30.378906 156.53125 29.945312 156.53125 29.375 C 156.53125 28.828125 156.386719 28.410156 156.105469 28.117188 C 155.816406 27.820312 155.40625 27.671875 154.871094 27.671875 L 153.882812 27.671875 L 153.882812 31.140625 Z M 161.214844 31.140625 L 163.753906 31.140625 L 163.753906 31.417969 L 160.910156 31.417969 L 160.910156 27.394531 L 163.652344 27.394531 L 163.652344 27.671875 L 161.214844 27.671875 L 161.214844 29.226562 L 163.144531 29.226562 L 163.144531 29.515625 L 161.214844 29.515625 Z M 168.917969 27.332031 C 169.675781 27.332031 170.183594 27.628906 170.4375 28.222656 L 170.175781 28.433594 C 170.074219 28.148438 169.921875 27.9375 169.71875 27.808594 C 169.519531 27.675781 169.253906 27.613281 168.929688 27.613281 C 168.691406 27.613281 168.484375 27.648438 168.3125 27.726562 C 168.136719 27.796875 168.003906 27.898438 167.914062 28.019531 C 167.820312 28.148438 167.777344 28.292969 167.777344 28.449219 C 167.777344 28.601562 167.816406 28.730469 167.894531 28.832031 C 167.96875 28.933594 168.097656 29.019531 168.285156 29.09375 C 168.46875 29.164062 168.726562 29.226562 169.050781 29.285156 C 169.570312 29.375 169.941406 29.503906 170.164062 29.675781 C 170.378906 29.84375 170.488281 30.078125 170.488281 30.382812 C 170.488281 30.597656 170.425781 30.789062 170.300781 30.957031 C 170.175781 31.121094 170 31.25 169.773438 31.339844 C 169.539062 31.433594 169.277344 31.480469 168.980469 31.480469 C 168.558594 31.480469 168.203125 31.394531 167.914062 31.226562 C 167.621094 31.058594 167.421875 30.820312 167.320312 30.515625 L 167.589844 30.308594 C 167.671875 30.597656 167.832031 30.820312 168.074219 30.96875 C 168.324219 31.125 168.625 31.199219 168.988281 31.199219 C 169.335938 31.199219 169.621094 31.128906 169.839844 30.988281 C 170.066406 30.84375 170.175781 30.648438 170.175781 30.398438 C 170.175781 30.183594 170.085938 30.015625 169.902344 29.890625 C 169.722656 29.761719 169.410156 29.660156 168.964844 29.585938 C 168.585938 29.519531 168.289062 29.4375 168.066406 29.34375 C 167.851562 29.253906 167.691406 29.136719 167.597656 28.996094 C 167.5 28.859375 167.453125 28.6875 167.453125 28.480469 C 167.453125 28.273438 167.511719 28.082031 167.632812 27.90625 C 167.75 27.730469 167.921875 27.589844 168.144531 27.488281 C 168.367188 27.386719 168.625 27.332031 168.917969 27.332031 Z M 174.792969 27.394531 L 174.792969 31.417969 L 174.488281 31.417969 L 174.488281 27.394531 Z M 180.652344 29.449219 L 182.300781 29.449219 L 182.300781 31.417969 L 182.054688 31.417969 L 182.046875 30.71875 C 181.9375 30.960938 181.765625 31.148438 181.53125 31.28125 C 181.296875 31.414062 181.011719 31.480469 180.664062 31.480469 C 180.300781 31.480469 179.980469 31.394531 179.703125 31.226562 C 179.429688 31.058594 179.222656 30.816406 179.074219 30.503906 C 178.925781 30.191406 178.851562 29.824219 178.851562 29.40625 C 178.851562 28.988281 178.925781 28.621094 179.078125 28.308594 C 179.230469 27.996094 179.445312 27.753906 179.722656 27.585938 C 179.996094 27.417969 180.316406 27.332031 180.683594 27.332031 C 181.089844 27.332031 181.425781 27.414062 181.6875 27.578125 C 181.949219 27.738281 182.140625 27.988281 182.269531 28.320312 L 181.992188 28.464844 C 181.898438 28.1875 181.742188 27.976562 181.523438 27.828125 C 181.296875 27.683594 181.019531 27.613281 180.683594 27.613281 C 180.378906 27.613281 180.117188 27.683594 179.890625 27.828125 C 179.664062 27.976562 179.488281 28.183594 179.359375 28.453125 C 179.234375 28.722656 179.171875 29.039062 179.171875 29.40625 C 179.171875 29.964844 179.308594 30.402344 179.574219 30.722656 C 179.835938 31.039062 180.207031 31.199219 180.679688 31.199219 C 180.96875 31.199219 181.214844 31.140625 181.417969 31.027344 C 181.621094 30.910156 181.769531 30.757812 181.871094 30.570312 C 181.96875 30.378906 182.015625 30.175781 182.015625 29.960938 L 182.015625 29.738281 L 180.652344 29.738281 Z M 189.511719 27.394531 L 189.511719 31.417969 L 189.132812 31.417969 L 187 28.261719 L 186.707031 27.726562 L 186.695312 27.726562 L 186.714844 28.230469 L 186.714844 31.417969 L 186.421875 31.417969 L 186.421875 27.394531 L 186.804688 27.394531 L 188.929688 30.546875 L 189.234375 31.085938 L 189.222656 30.582031 L 189.222656 27.394531 Z M 189.511719 27.394531 "/>
</g>
</svg>
